# xmcd
#
# Track frame offsets:
#	150
#	14982
#	28041
#	39446
#	53308
#	63081
#	76676
#	90348
#	101724
#	114884
#
# Disc length: 1685 seconds
#
# Revision: 1
# Processed by: cddbd v1.5.2PL0 Copyright (c) Steve Scherf et al.
# Submitted via: audiograbber 1.83.01
#
DISCID=6806930a
DTITLE=Vern Gosdin - Today My World Slipped Away
DYEAR=1982
DGENRE=Country
TTITLE0=Today My World Slipped Away
TTITLE1=Too Long Gone
TTITLE2=Your Bedroom Eyes
TTITLE3=Just Give Me What You Think I
TTITLE4=Ain't It Been Love
TTITLE5=Dream Of Me
TTITLE6=She's Just A Place To Fall
TTITLE7=Don't Ever Leave Me Again
TTITLE8=If You Touch Me
TTITLE9=When Love Was All We Had to S
EXTD=
EXTT0=
EXTT1=
EXTT2=
EXTT3=
EXTT4=
EXTT5=
EXTT6=
EXTT7=
EXTT8=
EXTT9=
PLAYORDER=
